<?xml version="1.0" encoding="iso-8859-1"?>
<!-- Generator: Adobe Illustrator 16.0.0, SVG Export Plug-In . SVG Version: 6.00 Build 0)  -->
<!DOCTYPE svg PUBLIC "-//W3C//DTD SVG 1.1//EN" "http://www.w3.org/Graphics/SVG/1.1/DTD/svg11.dtd">
<svg xmlns="http://www.w3.org/2000/svg" xmlns:xlink="http://www.w3.org/1999/xlink" version="1.1" id="Capa_1" x="0px" y="0px" width="512px" height="512px" viewBox="0 0 611.9 611.9" style="enable-background:new 0 0 611.9 611.9;" xml:space="preserve">
<g>
	<path d="M363.343,241c-3.8-15.3-11.5-28.7-21-36.3c-5.8-61.3-21.1-204.7-36.399-204.7c-15.3,0-30.6,143.4-36.3,202.7   c-11.5,9.6-19.1,21-21,36.3c-47.9,34.5-166.4,120.5-158.8,133.9c7.6,13.399,139.6-45.9,195.1-70.8l-17.2,290.7   c0,0,9.6,19.101,38.2,19.101c28.6,0,38.2-19.101,38.2-19.101l-17.2-288.8c55.5,24.9,187.399,84.2,195.1,70.8   C529.743,361.4,413.043,275.4,363.343,241z M305.943,63.1c0,0,5.7,44,15.3,130.1c-3.8-1.9-9.6-1.9-15.3-1.9s-11.5,0-15.3,1.9   C296.443,124.3,305.943,63.1,305.943,63.1z M145.343,340.4c0,0,36.3-28.7,105.2-78.4c1.9,11.5,7.7,21,15.3,26.8   C202.743,317.5,145.343,340.4,145.343,340.4z M305.943,592.9c-15.3,0-19.1-5.7-19.1-5.7l17.2-281.2h1.9h1.899l17.2,281.1   C325.144,587.1,321.243,592.9,305.943,592.9z M305.943,286.9c-21,0-38.2-17.2-38.2-38.2s17.2-38.2,38.2-38.2s38.2,17.2,38.2,38.2   S327.043,286.9,305.943,286.9z M346.144,288.8c7.699-5.7,13.399-15.3,15.3-28.7c55.5,40.2,103.3,78.4,103.3,78.4   S422.644,323.2,346.144,288.8z" fill="#0FB6FF"/>
</g>
<g>
</g>
<g>
</g>
<g>
</g>
<g>
</g>
<g>
</g>
<g>
</g>
<g>
</g>
<g>
</g>
<g>
</g>
<g>
</g>
<g>
</g>
<g>
</g>
<g>
</g>
<g>
</g>
<g>
</g>
</svg>
