<?xml version="1.0" encoding="utf-8"?>
<!DOCTYPE svg PUBLIC "-//W3C//DTD SVG 1.1//EN" "http://www.w3.org/Graphics/SVG/1.1/DTD/svg11.dtd">
<svg xmlns="http://www.w3.org/2000/svg" xmlns:xlink="http://www.w3.org/1999/xlink" version="1.1" viewBox="0 0 512 512" enable-background="new 0 0 512 512" width="512px" height="512px">
  <g>
    <g>
      <g>
        <path d="m480.6,95.5h-30.6v-64.1c0-11.3-9.1-20.4-20.4-20.4h-124.2c-11.3,0-20.4,9.1-20.4,20.4v64.1h-57.9v-64.1c0-11.3-9.1-20.4-20.4-20.4h-124.2c-11.3,0-20.4,9.1-20.4,20.4v64.1h-30.7c-11.3,0-20.4,9.1-20.4,20.4v364.7c0,11.3 9.1,20.4 20.4,20.4h449.2c11.3,0 20.4-9.1 20.4-20.4v-364.7c5.68434e-14-11.3-9.1-20.4-20.4-20.4zm-154.8-43.7h83.4v43.6h-83.4v-43.6zm-222.9,0h83.4v43.6h-83.4v-43.6zm357.3,408.4h-408.3v-323.9h408.3v323.9z" fill="#0FB6FF"/>
        <path d="m115.2,253h15.5v15.5c0,11.3 9.1,20.4 20.4,20.4 11.3,0 20.4-9.1 20.4-20.4v-15.5h15.5c11.3,0 20.4-9.1 20.4-20.4s-9.1-20.4-20.4-20.4h-15.5v-15.5c0-11.3-9.1-20.4-20.4-20.4-11.3,0-20.4,9.1-20.4,20.4v15.5h-15.5c-11.3,0-20.4,9.1-20.4,20.4s9.2,20.4 20.4,20.4z" fill="#0FB6FF"/>
        <path d="m325.1,253h71.8c11.3,0 20.4-9.1 20.4-20.4s-9.1-20.4-20.4-20.4h-71.8c-11.3,0-20.4,9.1-20.4,20.4s9.1,20.4 20.4,20.4z" fill="#0FB6FF"/>
      </g>
    </g>
  </g>
</svg>
